# xmcd
#
# Track frame offsets:
#	150
#	11300
#	22020
#	34767
#	45157
#	56232
#	66840
#	77975
#	88162
#	97597
#	110817
#	123170
#	133785
#	142897
#
# Disc length: 2091 seconds
#
# Revision: 3
# Processed by: cddbd v1.5.2PL0 Copyright (c) Steve Scherf et al.
# Submitted via: audiograbber 1.83.01
#
DISCID=b308290e
DTITLE=Marvelows - A Golden Classic Edition
DYEAR=1900
DGENRE=Oldies
TTITLE0=I Do
TTITLE1=My Heart
TTITLE2=A Friend
TTITLE3=Hey, Hey, Baby
TTITLE4=The Shim Sham
TTITLE5=Your Little Sister
TTITLE6=Do It
TTITLE7=I've Got My Eyes On You
TTITLE8=Fade Away
TTITLE9=You've Been Going With Sally
TTITLE10=In The Morning
TTITLE11=Talking 'Bout Ya Baby
TTITLE12=I'm So Confused
TTITLE13=I'm Without A Girl
EXTD=
EXTT0=
EXTT1=
EXTT2=
EXTT3=
EXTT4=
EXTT5=
EXTT6=
EXTT7=
EXTT8=
EXTT9=
EXTT10=
EXTT11=
EXTT12=
EXTT13=
PLAYORDER=
